<svg width="24" height="24" viewBox="0 0 24 24" fill="none" xmlns="http://www.w3.org/2000/svg">
<g clip-path="url(#clip0_152_1697)">
<path d="M11.9999 15.4299C13.8943 15.4299 15.4299 13.8943 15.4299 11.9999C15.4299 10.1056 13.8943 8.56995 11.9999 8.56995C10.1056 8.56995 8.56995 10.1056 8.56995 11.9999C8.56995 13.8943 10.1056 15.4299 11.9999 15.4299Z" stroke="currentColor" stroke-width="2" stroke-miterlimit="10"/>
<path d="M22.3 13.8301V10.1701L19.33 9.72005C19.19 9.27005 19.01 8.84005 18.79 8.42005L20.57 6.00005L17.98 3.41005L15.56 5.19005C15.15 4.97005 14.72 4.79005 14.26 4.65005L13.81 1.68005H10.15L9.70003 4.65005C9.25003 4.79005 8.82003 4.97005 8.40003 5.19005L5.98003 3.41005L3.39003 6.00005L5.17003 8.42005C4.95003 8.83005 4.77003 9.26005 4.63003 9.72005L1.66003 10.1701V13.8301L4.63003 14.2801C4.77003 14.7301 4.95003 15.1601 5.17003 15.5801L3.39003 18.0001L5.98003 20.5901L8.40003 18.8101C8.81003 19.0301 9.24003 19.2101 9.70003 19.3501L10.15 22.3201H13.81L14.26 19.3501C14.71 19.2101 15.14 19.0301 15.56 18.8101L17.98 20.5901L20.57 18.0001L18.79 15.5801C19.01 15.1701 19.19 14.7401 19.33 14.2801L22.3 13.8301Z" stroke="currentColor" stroke-width="2" stroke-linejoin="round"/>
</g>
<defs>
<clipPath id="clip0_152_1697">
<rect width="24" height="24" fill="white"/>
</clipPath>
</defs>
</svg>
