<svg width="46" height="14" viewBox="0 0 46 14" fill="none" xmlns="http://www.w3.org/2000/svg">
<g clip-path="url(#clip0_63_1571)">
<path d="M18.2179 1V10.4778H16V1H18.2179Z" fill="#1D1D1B"/>
<path d="M21.2149 10.1363C20.6523 9.83745 20.1979 9.41052 19.8733 8.85551C19.5488 8.3005 19.3865 7.64943 19.3865 6.91298C19.3865 6.17653 19.5488 5.53613 19.8842 4.97045C20.2087 4.41544 20.6631 3.97784 21.2366 3.67899C21.81 3.38014 22.4483 3.23071 23.1624 3.23071C23.8764 3.23071 24.5148 3.38014 25.0882 3.67899C25.6616 3.97784 26.1052 4.40477 26.4406 4.97045C26.776 5.53613 26.9383 6.17653 26.9383 6.91298C26.9383 7.64943 26.776 8.28983 26.4406 8.85551C26.1052 9.42119 25.6508 9.84812 25.0774 10.147C24.5039 10.4458 23.8548 10.5952 23.1515 10.5952C22.4483 10.5952 21.7991 10.4458 21.2366 10.147L21.2149 10.1363ZM24.2118 8.22579C24.5148 7.91626 24.6554 7.47866 24.6554 6.90231C24.6554 6.32595 24.5148 5.88835 24.2226 5.57882C23.9305 5.2693 23.5735 5.11988 23.1515 5.11988C22.7296 5.11988 22.3617 5.2693 22.0696 5.57882C21.7883 5.87768 21.6369 6.32595 21.6369 6.90231C21.6369 7.47866 21.7775 7.91626 22.0588 8.22579C22.3401 8.53531 22.6971 8.68474 23.1191 8.68474C23.541 8.68474 23.9089 8.53531 24.201 8.22579H24.2118Z" fill="#1D1D1B"/>
<path d="M32.1962 3.54022C32.5857 3.74301 32.8778 4.00984 33.0834 4.35139V3.33743H35.3013V10.4672C35.3013 11.1289 35.1715 11.7159 34.901 12.2496C34.6414 12.7832 34.2302 13.2102 33.6893 13.5197C33.1483 13.8292 32.4775 13.9893 31.6661 13.9893C30.595 13.9893 29.7186 13.7438 29.0587 13.2422C28.3879 12.7406 28.0092 12.0681 27.9118 11.2143H30.1081C30.173 11.4918 30.3461 11.7052 30.6058 11.8653C30.8655 12.0254 31.19 12.1002 31.5687 12.1002C32.0231 12.1002 32.391 11.9721 32.6614 11.7052C32.9319 11.4491 33.0726 11.0328 33.0726 10.4565V9.44252C32.8562 9.77339 32.5533 10.0509 32.1746 10.2537C31.7959 10.4672 31.3523 10.5632 30.833 10.5632C30.238 10.5632 29.697 10.4138 29.2101 10.1043C28.7233 9.80541 28.3446 9.36781 28.0633 8.8128C27.782 8.25779 27.6414 7.60672 27.6414 6.87027C27.6414 6.13382 27.782 5.49342 28.0633 4.93841C28.3446 4.38341 28.7233 3.95648 29.2101 3.65763C29.697 3.35878 30.238 3.20935 30.833 3.20935C31.3415 3.20935 31.7959 3.31608 32.1746 3.51887L32.1962 3.54022ZM32.629 5.61083C32.3261 5.29063 31.9474 5.14121 31.5038 5.14121C31.0602 5.14121 30.6924 5.3013 30.3786 5.61083C30.0757 5.92035 29.9134 6.34728 29.9134 6.90229C29.9134 7.4573 30.0649 7.88423 30.3786 8.20442C30.6815 8.52462 31.0602 8.68472 31.5038 8.68472C31.9474 8.68472 32.3152 8.52462 32.629 8.2151C32.9319 7.8949 33.0942 7.46797 33.0942 6.92364C33.0942 6.3793 32.9427 5.9417 32.629 5.63217V5.61083Z" fill="#1D1D1B"/>
<path d="M38.2984 10.1363C37.7358 9.83745 37.2814 9.41052 36.9568 8.85551C36.6323 8.3005 36.47 7.64943 36.47 6.91298C36.47 6.17653 36.6323 5.53613 36.9677 4.97045C37.2922 4.41544 37.7466 3.97784 38.32 3.67899C38.8935 3.38014 39.5318 3.23071 40.2459 3.23071C40.9599 3.23071 41.5983 3.38014 42.1717 3.67899C42.7451 3.97784 43.1887 4.40477 43.5241 4.97045C43.8595 5.53613 44.0217 6.17653 44.0217 6.91298C44.0217 7.64943 43.8595 8.28983 43.5241 8.85551C43.1887 9.42119 42.7343 9.84812 42.1609 10.147C41.5874 10.4458 40.9383 10.5952 40.235 10.5952C39.5318 10.5952 38.8826 10.4458 38.32 10.147L38.2984 10.1363ZM41.2953 8.22579C41.5983 7.91626 41.7389 7.47866 41.7389 6.90231C41.7389 6.32595 41.5983 5.88835 41.3061 5.57882C41.014 5.2693 40.657 5.11988 40.235 5.11988C39.8131 5.11988 39.4452 5.2693 39.1531 5.57882C38.8718 5.87768 38.7204 6.32595 38.7204 6.90231C38.7204 7.47866 38.861 7.91626 39.1423 8.22579C39.4236 8.53531 39.7806 8.68474 40.2026 8.68474C40.6245 8.68474 40.9924 8.53531 41.2845 8.22579H41.2953Z" fill="#1D1D1B"/>
</g>
<g clip-path="url(#clip1_63_1571)">
<path d="M4 11V1H7.41994V8.38095H12V11H4Z" fill="#11B4DD"/>
</g>
<defs>
<clipPath id="clip0_63_1571">
<rect width="28" height="13" fill="white" transform="translate(16 1)"/>
</clipPath>
<clipPath id="clip1_63_1571">
<rect width="8" height="10" fill="white" transform="translate(4 1)"/>
</clipPath>
</defs>
</svg>
