<svg width="60" height="14" viewBox="0 0 60 14" fill="none" xmlns="http://www.w3.org/2000/svg">
<path d="M7.75076 1.12427V2.82231H5.44183V9.84227H3.30892V2.82231H1V1.12427H7.75076Z" fill="#11B4DD"/>
<path d="M15.3091 6.89136H10.5049C10.5359 7.32622 10.6809 7.64719 10.919 7.87498C11.1572 8.10277 11.4678 8.21666 11.8198 8.21666C12.3479 8.21666 12.7206 7.98887 12.9277 7.54365H15.1848C15.071 7.99923 14.8639 8.41338 14.5533 8.77577C14.253 9.13816 13.8699 9.42807 13.4143 9.63515C12.9588 9.84222 12.4514 9.94576 11.8819 9.94576C11.1986 9.94576 10.5981 9.80081 10.07 9.5109C9.54196 9.22099 9.12781 8.80683 8.82754 8.26843C8.52728 7.73002 8.38232 7.09843 8.38232 6.38401C8.38232 5.66959 8.52728 5.038 8.82754 4.4996C9.11745 3.9612 9.53161 3.54704 10.0597 3.25713C10.5877 2.96722 11.1986 2.82227 11.8819 2.82227C12.5653 2.82227 13.1451 2.96722 13.6732 3.24678C14.1909 3.52633 14.605 3.93014 14.8949 4.44783C15.1848 4.96553 15.3402 5.57641 15.3402 6.27012C15.3402 6.46685 15.3298 6.67392 15.2987 6.89136H15.3091ZM13.1762 5.71101C13.1762 5.34862 13.0519 5.05871 12.8034 4.84128C12.555 4.62385 12.2443 4.52031 11.8716 4.52031C11.4989 4.52031 11.2193 4.62385 10.9708 4.83093C10.7223 5.038 10.5774 5.32791 10.5152 5.71101H13.1762Z" fill="#11B4DD"/>
<path d="M19.4506 3.11221C19.813 2.91549 20.2375 2.81195 20.7345 2.81195C21.3039 2.81195 21.8216 2.95691 22.2876 3.24682C22.7535 3.53673 23.1159 3.95088 23.3851 4.48929C23.6543 5.02769 23.7889 5.64892 23.7889 6.36335C23.7889 7.07777 23.6543 7.699 23.3851 8.24776C23.1159 8.79652 22.7535 9.21067 22.2876 9.50058C21.8216 9.79049 21.3039 9.9458 20.7345 9.9458C20.2582 9.9458 19.8337 9.84226 19.4609 9.64554C19.0882 9.44881 18.8086 9.18997 18.6016 8.87935V13.1555H16.479V2.91549H18.6016V3.89911C18.8086 3.57814 19.0985 3.31929 19.4609 3.11221H19.4506ZM21.1797 5.12087C20.8898 4.82061 20.5274 4.6653 20.0925 4.6653C19.6577 4.6653 19.316 4.82061 19.0157 5.12087C18.7258 5.43149 18.5705 5.84565 18.5705 6.3737C18.5705 6.90175 18.7155 7.32626 19.0157 7.62652C19.3056 7.93714 19.668 8.0821 20.0925 8.0821C20.517 8.0821 20.8794 7.92679 21.1693 7.61617C21.4696 7.30555 21.6145 6.88104 21.6145 6.35299C21.6145 5.82494 21.4696 5.41078 21.1693 5.10017L21.1797 5.12087Z" fill="#11B4DD"/>
<path d="M31.3992 6.89136H26.595C26.626 7.32622 26.771 7.64719 27.0091 7.87498C27.2473 8.10277 27.5579 8.21666 27.9099 8.21666C28.438 8.21666 28.8107 7.98887 29.0178 7.54365H31.2749C31.161 7.99923 30.954 8.41338 30.6433 8.77577C30.3431 9.13816 29.96 9.42807 29.5044 9.63515C29.0488 9.84222 28.5415 9.94576 27.972 9.94576C27.2887 9.94576 26.6881 9.80081 26.1601 9.5109C25.6321 9.22099 25.2179 8.80683 24.9176 8.26843C24.6174 7.73002 24.4724 7.09843 24.4724 6.38401C24.4724 5.66959 24.6174 5.038 24.9176 4.4996C25.2075 3.9612 25.6217 3.54704 26.1497 3.25713C26.6778 2.96722 27.2887 2.82227 27.972 2.82227C28.6554 2.82227 29.2352 2.96722 29.7633 3.24678C30.281 3.52633 30.6951 3.93014 30.985 4.44783C31.2749 4.96553 31.4302 5.57641 31.4302 6.27012C31.4302 6.46685 31.4199 6.67392 31.3888 6.89136H31.3992ZM29.2663 5.71101C29.2663 5.34862 29.142 5.05871 28.8935 4.84128C28.645 4.62385 28.3344 4.52031 27.9617 4.52031C27.5889 4.52031 27.3094 4.62385 27.0609 4.83093C26.8124 5.038 26.6674 5.32791 26.6053 5.71101H29.2663Z" fill="#11B4DD"/>
<path d="M39.061 6.89136H34.2568C34.2879 7.32622 34.4328 7.64719 34.671 7.87498C34.9091 8.10277 35.2197 8.21666 35.5718 8.21666C36.0998 8.21666 36.4726 7.98887 36.6796 7.54365H38.9368C38.8229 7.99923 38.6158 8.41338 38.3052 8.77577C38.0049 9.13816 37.6219 9.42807 37.1663 9.63515C36.7107 9.84222 36.2034 9.94576 35.6339 9.94576C34.9505 9.94576 34.35 9.80081 33.822 9.5109C33.2939 9.22099 32.8798 8.80683 32.5795 8.26843C32.2792 7.73002 32.1343 7.09843 32.1343 6.38401C32.1343 5.66959 32.2792 5.038 32.5795 4.4996C32.8694 3.9612 33.2836 3.54704 33.8116 3.25713C34.3397 2.96722 34.9505 2.82227 35.6339 2.82227C36.3173 2.82227 36.8971 2.96722 37.4251 3.24678C37.9428 3.52633 38.357 3.93014 38.6469 4.44783C38.9368 4.96553 39.0921 5.57641 39.0921 6.27012C39.0921 6.46685 39.0818 6.67392 39.0507 6.89136H39.061ZM36.9281 5.71101C36.9281 5.34862 36.8039 5.05871 36.5554 4.84128C36.3069 4.62385 35.9963 4.52031 35.6235 4.52031C35.2508 4.52031 34.9713 4.62385 34.7228 4.83093C34.4743 5.038 34.3293 5.32791 34.2672 5.71101H36.9281Z" fill="#11B4DD"/>
<path d="M44.7144 9.36597C44.031 8.98287 43.4926 8.45482 43.0888 7.77146C42.685 7.0881 42.4883 6.32191 42.4883 5.46254C42.4883 4.60316 42.685 3.84733 43.0888 3.16397C43.4926 2.48061 44.031 1.95256 44.7144 1.56947C45.3977 1.18637 46.1536 1 46.9715 1C47.7895 1 48.5453 1.18637 49.2287 1.56947C49.912 1.95256 50.4504 2.48061 50.8439 3.16397C51.2373 3.84733 51.4341 4.61352 51.4341 5.46254C51.4341 6.31156 51.2373 7.0881 50.8335 7.77146C50.4401 8.45482 49.9017 8.98287 49.2183 9.36597C48.535 9.74906 47.7895 9.93543 46.9715 9.93543C46.1536 9.93543 45.3977 9.74906 44.7144 9.36597ZM48.6385 7.30554C49.0527 6.83961 49.2701 6.22873 49.2701 5.46254C49.2701 4.69635 49.063 4.07511 48.6385 3.61954C48.2244 3.16397 47.6652 2.92583 46.9715 2.92583C46.2778 2.92583 45.7084 3.15362 45.2838 3.60919C44.8697 4.06476 44.6523 4.686 44.6523 5.46254C44.6523 6.23908 44.8593 6.84996 45.2838 7.30554C45.698 7.76111 46.2675 7.99925 46.9715 7.99925C47.6756 7.99925 48.2244 7.77146 48.6385 7.30554Z" fill="#11B4DD"/>
<path d="M58.7853 3.62992C59.2719 4.15797 59.5101 4.88274 59.5101 5.79388V9.84227H57.3979V6.07344C57.3979 5.60751 57.2736 5.24513 57.0355 4.99663C56.7973 4.73778 56.4764 4.61354 56.0622 4.61354C55.6481 4.61354 55.3374 4.73778 55.0889 4.99663C54.8508 5.25548 54.7266 5.61787 54.7266 6.07344V9.84227H52.604V2.9155H54.7266V3.83699C54.944 3.52638 55.2339 3.28824 55.5963 3.11222C55.9587 2.9362 56.3728 2.84302 56.8284 2.84302C57.636 2.84302 58.2883 3.10187 58.7749 3.62992H58.7853Z" fill="#11B4DD"/>
</svg>
