<svg width="40" height="14" viewBox="0 0 40 14" fill="none" xmlns="http://www.w3.org/2000/svg">
<path d="M7.75076 1.12427V2.82231H5.44183V9.84227H3.30892V2.82231H1V1.12427H7.75076Z" fill="#11B4DD"/>
<path d="M15.3091 6.89142H10.5049C10.5359 7.32628 10.6809 7.64725 10.919 7.87504C11.1572 8.10283 11.4678 8.21672 11.8198 8.21672C12.3479 8.21672 12.7206 7.98893 12.9277 7.54372H15.1848C15.071 7.99929 14.8639 8.41344 14.5533 8.77583C14.253 9.13822 13.8699 9.42813 13.4143 9.63521C12.9588 9.84228 12.4514 9.94582 11.8819 9.94582C11.1986 9.94582 10.5981 9.80087 10.07 9.51096C9.54196 9.22105 9.12781 8.80689 8.82754 8.26849C8.52728 7.73009 8.38232 7.0985 8.38232 6.38408C8.38232 5.66965 8.52728 5.03807 8.82754 4.49966C9.11745 3.96126 9.53161 3.5471 10.0597 3.25719C10.5877 2.96728 11.1986 2.82233 11.8819 2.82233C12.5653 2.82233 13.1451 2.96728 13.6732 3.24684C14.1909 3.52639 14.605 3.9302 14.8949 4.44789C15.1848 4.96559 15.3402 5.57647 15.3402 6.27018C15.3402 6.46691 15.3298 6.67399 15.2987 6.89142H15.3091ZM13.1762 5.71107C13.1762 5.34868 13.0519 5.05877 12.8034 4.84134C12.555 4.62391 12.2443 4.52037 11.8716 4.52037C11.4989 4.52037 11.2193 4.62391 10.9708 4.83099C10.7223 5.03807 10.5774 5.32798 10.5152 5.71107H13.1762Z" fill="#11B4DD"/>
<path d="M19.4506 3.11221C19.813 2.91549 20.2375 2.81195 20.7345 2.81195C21.3039 2.81195 21.8216 2.95691 22.2876 3.24682C22.7535 3.53673 23.1159 3.95088 23.3851 4.48929C23.6543 5.02769 23.7889 5.64892 23.7889 6.36335C23.7889 7.07777 23.6543 7.699 23.3851 8.24776C23.1159 8.79652 22.7535 9.21067 22.2876 9.50058C21.8216 9.79049 21.3039 9.9458 20.7345 9.9458C20.2582 9.9458 19.8337 9.84226 19.4609 9.64554C19.0882 9.44881 18.8086 9.18997 18.6016 8.87935V13.1555H16.479V2.91549H18.6016V3.89911C18.8086 3.57814 19.0985 3.31929 19.4609 3.11221H19.4506ZM21.1797 5.12087C20.8898 4.82061 20.5274 4.6653 20.0925 4.6653C19.6577 4.6653 19.316 4.82061 19.0157 5.12087C18.7258 5.43149 18.5705 5.84565 18.5705 6.3737C18.5705 6.90175 18.7155 7.32626 19.0157 7.62652C19.3056 7.93714 19.668 8.0821 20.0925 8.0821C20.517 8.0821 20.8794 7.92679 21.1693 7.61617C21.4696 7.30555 21.6145 6.88104 21.6145 6.35299C21.6145 5.82494 21.4696 5.41078 21.1693 5.10017L21.1797 5.12087Z" fill="#11B4DD"/>
<path d="M31.3992 6.89142H26.595C26.626 7.32628 26.771 7.64725 27.0091 7.87504C27.2473 8.10283 27.5579 8.21672 27.9099 8.21672C28.438 8.21672 28.8107 7.98893 29.0178 7.54372H31.2749C31.161 7.99929 30.954 8.41344 30.6433 8.77583C30.3431 9.13822 29.96 9.42813 29.5044 9.63521C29.0488 9.84228 28.5415 9.94582 27.972 9.94582C27.2887 9.94582 26.6881 9.80087 26.1601 9.51096C25.6321 9.22105 25.2179 8.80689 24.9176 8.26849C24.6174 7.73009 24.4724 7.0985 24.4724 6.38408C24.4724 5.66965 24.6174 5.03807 24.9176 4.49966C25.2075 3.96126 25.6217 3.5471 26.1497 3.25719C26.6778 2.96728 27.2887 2.82233 27.972 2.82233C28.6554 2.82233 29.2352 2.96728 29.7633 3.24684C30.281 3.52639 30.6951 3.9302 30.985 4.44789C31.2749 4.96559 31.4302 5.57647 31.4302 6.27018C31.4302 6.46691 31.4199 6.67399 31.3888 6.89142H31.3992ZM29.2663 5.71107C29.2663 5.34868 29.142 5.05877 28.8935 4.84134C28.645 4.62391 28.3344 4.52037 27.9617 4.52037C27.5889 4.52037 27.3094 4.62391 27.0609 4.83099C26.8124 5.03807 26.6674 5.32798 26.6053 5.71107H29.2663Z" fill="#11B4DD"/>
<path d="M39.061 6.89142H34.2568C34.2879 7.32628 34.4328 7.64725 34.671 7.87504C34.9091 8.10283 35.2197 8.21672 35.5718 8.21672C36.0998 8.21672 36.4726 7.98893 36.6796 7.54372H38.9368C38.8229 7.99929 38.6158 8.41344 38.3052 8.77583C38.0049 9.13822 37.6219 9.42813 37.1663 9.63521C36.7107 9.84228 36.2034 9.94582 35.6339 9.94582C34.9505 9.94582 34.35 9.80087 33.822 9.51096C33.2939 9.22105 32.8798 8.80689 32.5795 8.26849C32.2792 7.73009 32.1343 7.0985 32.1343 6.38408C32.1343 5.66965 32.2792 5.03807 32.5795 4.49966C32.8694 3.96126 33.2836 3.5471 33.8116 3.25719C34.3397 2.96728 34.9505 2.82233 35.6339 2.82233C36.3173 2.82233 36.8971 2.96728 37.4251 3.24684C37.9428 3.52639 38.357 3.9302 38.6469 4.44789C38.9368 4.96559 39.0921 5.57647 39.0921 6.27018C39.0921 6.46691 39.0818 6.67399 39.0507 6.89142H39.061ZM36.9281 5.71107C36.9281 5.34868 36.8039 5.05877 36.5554 4.84134C36.3069 4.62391 35.9963 4.52037 35.6235 4.52037C35.2508 4.52037 34.9713 4.62391 34.7228 4.83099C34.4743 5.03807 34.3293 5.32798 34.2672 5.71107H36.9281Z" fill="#11B4DD"/>
</svg>
