<svg width="92" height="92" viewBox="0 0 92 92" fill="none" xmlns="http://www.w3.org/2000/svg">
<path d="M83.8554 10.9185L42.0887 4.0186C41.2527 3.88097 40.4946 4.52447 40.4946 5.37255V85.6312C40.4946 86.4718 41.2452 87.1153 42.0739 86.9851L83.8369 80.4906C84.5057 80.3865 84.9962 79.8099 84.9962 79.1367V12.2725C84.9962 11.6029 84.5094 11.0301 83.848 10.9185H83.8554ZM47.1981 47.8769C45.8827 47.8769 44.8199 46.8093 44.8199 45.4963C44.8199 44.1833 45.8864 43.1157 47.1981 43.1157C48.5098 43.1157 49.5763 44.1833 49.5763 45.4963C49.5763 46.8093 48.5098 47.8769 47.1981 47.8769Z" fill="#1D1D1B" fill-opacity="0.1"/>
<path d="M24.8024 33.6827C23.7397 32.6189 21.9226 33.374 21.9226 34.8767V41.1331H6V49.8706H21.9226V56.127C21.9226 57.6297 23.7397 58.3848 24.8024 57.321L36.6079 45.5037L24.8024 33.6864V33.6827Z" fill="#1D1D1B" fill-opacity="0.1"/>
<path d="M19.7638 76.1907V56.8746C19.7155 56.6329 19.6895 56.3837 19.6895 56.127V52.1024H14.5615V76.1944C14.5615 79.3041 17.0883 81.8371 20.1985 81.8371H36.6079V76.6296H20.1985C19.9607 76.6296 19.7638 76.4362 19.7638 76.1944V76.1907Z" fill="#1D1D1B" fill-opacity="0.1"/>
<path d="M19.6932 38.9014V34.8767C19.6932 34.6201 19.7192 34.3708 19.7675 34.1291V14.1472C19.7675 13.9091 19.9607 13.712 20.2023 13.712H36.6117V8.50449H20.1985C17.092 8.50449 14.5615 11.0338 14.5615 14.1472V38.9014H19.6895H19.6932Z" fill="#1D1D1B" fill-opacity="0.1"/>
</svg>
