<svg width="40" height="40" viewBox="0 0 40 40" fill="none" xmlns="http://www.w3.org/2000/svg">
<path d="M3 32.5332C3 34.4399 4.56679 36 6.48175 36H33.3579C35.2729 36 36.8397 34.4399 36.8397 32.5332V16.6334H3L3 32.5332Z" fill="#11B4DD"/>
<path d="M33.3579 5.62262H6.48175C4.56679 5.62262 3 6.92845 3 8.52896V14.8051H36.8397V8.52896C36.8397 6.93134 35.2729 5.62262 33.3579 5.62262Z" fill="#F7136A"/>
<path d="M12.3007 2H10.1618C9.74225 2 9.4021 2.37546 9.4021 2.83862V9.39266C9.4021 9.85581 9.74225 10.2313 10.1618 10.2313H12.3007C12.7203 10.2313 13.0604 9.85581 13.0604 9.39266V2.83862C13.0604 2.37546 12.7203 2 12.3007 2Z" fill="url(#paint0_linear_152_1536)"/>
<path d="M29.6781 2H27.5393C27.1197 2 26.7795 2.37546 26.7795 2.83862V9.39266C26.7795 9.85581 27.1197 10.2313 27.5393 10.2313H29.6781C30.0977 10.2313 30.4379 9.85581 30.4379 9.39266V2.83862C30.4379 2.37546 30.0977 2 29.6781 2Z" fill="url(#paint1_linear_152_1536)"/>
<path d="M11.6886 24.8647C12.9513 24.8647 13.975 23.841 13.975 22.5782C13.975 21.3154 12.9513 20.2917 11.6886 20.2917C10.4258 20.2917 9.4021 21.3154 9.4021 22.5782C9.4021 23.841 10.4258 24.8647 11.6886 24.8647Z" fill="#F7F7F7"/>
<path d="M19.92 24.8647C21.1828 24.8647 22.2065 23.841 22.2065 22.5782C22.2065 21.3154 21.1828 20.2917 19.92 20.2917C18.6572 20.2917 17.6335 21.3154 17.6335 22.5782C17.6335 23.841 18.6572 24.8647 19.92 24.8647Z" fill="#F7F7F7"/>
<path d="M28.1512 24.8647C29.414 24.8647 30.4377 23.841 30.4377 22.5782C30.4377 21.3154 29.414 20.2917 28.1512 20.2917C26.8884 20.2917 25.8647 21.3154 25.8647 22.5782C25.8647 23.841 26.8884 24.8647 28.1512 24.8647Z" fill="#F7F7F7"/>
<path d="M11.6886 31.2668C12.9513 31.2668 13.975 30.2431 13.975 28.9803C13.975 27.7175 12.9513 26.6938 11.6886 26.6938C10.4258 26.6938 9.4021 27.7175 9.4021 28.9803C9.4021 30.2431 10.4258 31.2668 11.6886 31.2668Z" fill="#F7F7F7"/>
<path d="M19.92 31.2668C21.1828 31.2668 22.2065 30.2431 22.2065 28.9803C22.2065 27.7175 21.1828 26.6938 19.92 26.6938C18.6572 26.6938 17.6335 27.7175 17.6335 28.9803C17.6335 30.2431 18.6572 31.2668 19.92 31.2668Z" fill="#F7F7F7"/>
<path d="M28.1512 31.2668C29.414 31.2668 30.4377 30.2431 30.4377 28.9803C30.4377 27.7175 29.414 26.6938 28.1512 26.6938C26.8884 26.6938 25.8647 27.7175 25.8647 28.9803C25.8647 30.2431 26.8884 31.2668 28.1512 31.2668Z" fill="#F7F7F7"/>
<defs>
<linearGradient id="paint0_linear_152_1536" x1="11.2313" y1="2" x2="11.2313" y2="10.2313" gradientUnits="userSpaceOnUse">
<stop stop-color="#FFD27E"/>
<stop offset="1" stop-color="#FF9741"/>
</linearGradient>
<linearGradient id="paint1_linear_152_1536" x1="28.6087" y1="2" x2="28.6087" y2="10.2313" gradientUnits="userSpaceOnUse">
<stop stop-color="#FFD27E"/>
<stop offset="1" stop-color="#FF9741"/>
</linearGradient>
</defs>
</svg>
