<svg width="40" height="40" viewBox="0 0 40 40" fill="none" xmlns="http://www.w3.org/2000/svg">
<path d="M26.2972 6.50198C26.2972 3.49239 23.7017 1.05264 20.4999 1.05264C17.2982 1.05264 14.7026 3.49239 14.7026 6.50198V12.9946C14.7026 16.0042 17.2982 18.4439 20.4999 18.4439C23.7017 18.4439 26.2972 16.0042 26.2972 12.9946V6.50198Z" fill="#11B4DD"/>
<path d="M20.5011 5.2174H20.4989C19.268 5.2174 18.2703 6.17056 18.2703 7.34634V11.7841C18.2703 12.9599 19.268 13.9131 20.4989 13.9131H20.5011C21.7319 13.9131 22.7297 12.9599 22.7297 11.7841V7.34634C22.7297 6.17056 21.7319 5.2174 20.5011 5.2174Z" fill="#FDFCFC"/>
<path d="M20.5 40C29.6127 40 37 32.8588 37 24.0496C37 15.2405 29.6127 8.09924 20.5 8.09924C11.3873 8.09924 4 15.2405 4 24.0496C4 32.8588 11.3873 40 20.5 40Z" fill="#11B4DD"/>
<path d="M20.5 34.2773C26.3432 34.2773 31.08 29.6982 31.08 24.0496C31.08 18.4011 26.3432 13.822 20.5 13.822C14.6568 13.822 9.91992 18.4011 9.91992 24.0496C9.91992 29.6982 14.6568 34.2773 20.5 34.2773Z" fill="#FDFCFC"/>
<path d="M20.608 19.945C19.9489 19.945 19.4094 20.4666 19.4094 21.1037V23.2265H18.1204C17.4614 23.2265 16.9219 23.748 16.9219 24.3851C16.9219 25.0222 17.4614 25.5437 18.1204 25.5437H20.608C21.267 25.5437 21.8066 25.0222 21.8066 24.3851V21.1065C21.8066 20.4694 21.267 19.9479 20.608 19.9479V19.945Z" fill="url(#paint0_linear_152_1535)"/>
<defs>
<linearGradient id="paint0_linear_152_1535" x1="19.3642" y1="19.945" x2="19.3642" y2="25.5437" gradientUnits="userSpaceOnUse">
<stop stop-color="#FFD27E"/>
<stop offset="1" stop-color="#FF9741"/>
</linearGradient>
</defs>
</svg>
