<svg width="40" height="40" viewBox="0 0 40 40" fill="none" xmlns="http://www.w3.org/2000/svg">
<path d="M30 6.2395V3.62359C30 2.62687 29.1827 1.81818 28.1753 1.81818H11.8247C10.8173 1.81818 10 2.62687 10 3.62359V6.2395H30Z" fill="#F7B213"/>
<path d="M10 7.91715V13.0796C10 13.5561 10.1697 14.0179 10.4797 14.3848L13.8303 18.3443H26.1697L29.5203 14.3848C29.8303 14.0197 30 13.5579 30 13.0796V7.91715H10Z" fill="#F7B213"/>
<path d="M13.8301 18.1818V35.3158C13.8301 36.8985 15.1271 38.1818 16.7268 38.1818H23.2747C24.8744 38.1818 26.1714 36.8985 26.1714 35.3158V18.1818H13.8301ZM22.1031 26.5052C22.1031 27.6534 21.1622 28.5862 19.9998 28.5862C18.8375 28.5862 17.8965 27.6552 17.8965 26.5052V23.0075C17.8965 21.8593 18.8375 20.9265 19.9998 20.9265C21.1622 20.9265 22.1031 21.8575 22.1031 23.0075V26.5052Z" fill="#F7B213"/>
</svg>
